<svg width="16" height="17" viewBox="0 0 16 17" fill="none" xmlns="http://www.w3.org/2000/svg">
<path d="M14.2451 0.375H1.87012C0.920898 0.375 0.182617 1.14844 0.182617 2.0625V14.4375C0.182617 15.3867 0.920898 16.125 1.87012 16.125H6.68652V10.7812H4.47168V8.25H6.68652V6.35156C6.68652 4.17188 7.9873 2.94141 9.95605 2.94141C10.9404 2.94141 11.9248 3.11719 11.9248 3.11719V5.26172H10.835C9.74512 5.26172 9.39355 5.92969 9.39355 6.63281V8.25H11.8193L11.4326 10.7812H9.39355V16.125H14.2451C15.1592 16.125 15.9326 15.3867 15.9326 14.4375V2.0625C15.9326 1.14844 15.1592 0.375 14.2451 0.375Z" fill="#555770"/>
</svg>
