<svg width="16" height="17" viewBox="0 0 16 17" fill="none" xmlns="http://www.w3.org/2000/svg">
<path d="M14.8076 0.375H1.27246C0.674805 0.375 0.182617 0.902344 0.182617 1.53516V15C0.182617 15.6328 0.674805 16.125 1.27246 16.125H14.8076C15.4053 16.125 15.9326 15.6328 15.9326 15V1.53516C15.9326 0.902344 15.4053 0.375 14.8076 0.375ZM4.92871 13.875H2.6084V6.38672H4.92871V13.875ZM3.76855 5.33203C2.99512 5.33203 2.39746 4.73438 2.39746 3.99609C2.39746 3.25781 2.99512 2.625 3.76855 2.625C4.50684 2.625 5.10449 3.25781 5.10449 3.99609C5.10449 4.73438 4.50684 5.33203 3.76855 5.33203ZM13.6826 13.875H11.3271V10.2188C11.3271 9.375 11.3271 8.25 10.1318 8.25C8.90137 8.25 8.72559 9.19922 8.72559 10.1836V13.875H6.40527V6.38672H8.62012V7.40625H8.65527C8.97168 6.80859 9.74512 6.17578 10.8701 6.17578C13.2256 6.17578 13.6826 7.75781 13.6826 9.76172V13.875Z" fill="#555770"/>
</svg>
