<svg width="16" height="17" viewBox="0 0 16 17" fill="none" xmlns="http://www.w3.org/2000/svg">
<path d="M14.2451 0.375H1.87012C0.920898 0.375 0.182617 1.14844 0.182617 2.0625V14.4375C0.182617 15.3867 0.920898 16.125 1.87012 16.125H14.2451C15.1592 16.125 15.9326 15.3867 15.9326 14.4375V2.0625C15.9326 1.14844 15.1592 0.375 14.2451 0.375ZM12.5225 5.96484C12.5225 6.07031 12.5225 6.17578 12.5225 6.28125C12.5225 9.30469 10.2021 12.8203 5.94824 12.8203C4.64746 12.8203 3.45215 12.4688 2.43262 11.8008C2.6084 11.8359 2.78418 11.8359 2.95996 11.8359C4.0498 11.8359 5.03418 11.4492 5.84277 10.8516C4.82324 10.8164 3.97949 10.1484 3.66309 9.23438C4.0498 9.30469 4.36621 9.30469 4.71777 9.19922C3.66309 8.98828 2.88965 8.07422 2.88965 6.94922V6.91406C3.1709 7.08984 3.52246 7.19531 3.90918 7.19531C3.27637 6.77344 2.88965 6.07031 2.88965 5.29688C2.88965 4.83984 2.99512 4.45312 3.20605 4.10156C4.33105 5.50781 6.05371 6.42188 7.95215 6.52734C7.63574 4.98047 8.7959 3.67969 10.2021 3.67969C10.8701 3.67969 11.4678 3.96094 11.8896 4.41797C12.417 4.3125 12.9092 4.13672 13.3662 3.85547C13.1904 4.41797 12.8037 4.83984 12.3467 5.12109C12.8037 5.08594 13.2607 4.94531 13.6826 4.76953C13.3662 5.22656 12.9443 5.64844 12.5225 5.96484Z" fill="#555770"/>
</svg>
