<svg width="16" height="17" viewBox="0 0 16 17" fill="none" xmlns="http://www.w3.org/2000/svg">
<path d="M6.72168 6.38672V10.1836L10.0967 8.28516L6.72168 6.38672ZM15.9326 2.0625C15.9326 1.14844 15.1592 0.375 14.2451 0.375H1.87012C0.920898 0.375 0.182617 1.14844 0.182617 2.0625V14.4375C0.182617 15.3867 0.920898 16.125 1.87012 16.125H14.2451C15.1592 16.125 15.9326 15.3867 15.9326 14.4375V2.0625ZM14.4561 8.28516C14.4561 8.28516 14.4561 10.3594 14.1748 11.3789C14.0342 11.9414 13.5771 12.3633 13.0498 12.5039C12.0303 12.75 8.05762 12.75 8.05762 12.75C8.05762 12.75 4.0498 12.75 3.03027 12.5039C2.50293 12.3633 2.0459 11.9414 1.90527 11.3789C1.65918 10.3594 1.65918 8.28516 1.65918 8.28516C1.65918 8.28516 1.65918 6.17578 1.90527 5.19141C2.0459 4.62891 2.50293 4.17188 3.03027 4.03125C4.0498 3.75 8.05762 3.75 8.05762 3.75C8.05762 3.75 12.0303 3.75 13.0498 4.03125C13.5771 4.17188 14.0342 4.62891 14.1748 5.19141C14.4561 6.17578 14.4561 8.28516 14.4561 8.28516Z" fill="#555770"/>
</svg>
